<svg id="그룹_16358" data-name="그룹 16358" xmlns="http://www.w3.org/2000/svg" xmlns:xlink="http://www.w3.org/1999/xlink" width="136" height="136" viewBox="0 0 136 136">
  <defs>
    <clipPath id="clip-path">
      <rect id="사각형_30798" data-name="사각형 30798" width="136" height="136" fill="none"/>
    </clipPath>
    <clipPath id="clip-path-4">
      <rect id="사각형_30794" data-name="사각형 30794" width="123.439" height="66.618" fill="none"/>
    </clipPath>
    <clipPath id="clip-path-5">
      <rect id="사각형_30795" data-name="사각형 30795" width="18.486" height="18.486" fill="none"/>
    </clipPath>
  </defs>
  <g id="그룹_16180" data-name="그룹 16180" clip-path="url(#clip-path)">
    <g id="그룹_16179" data-name="그룹 16179" transform="translate(0 0)">
      <g id="그룹_16178" data-name="그룹 16178" clip-path="url(#clip-path)">
        <g id="그룹_16168" data-name="그룹 16168" opacity="0">
          <g id="그룹_16167" data-name="그룹 16167">
            <g id="그룹_16166" data-name="그룹 16166" clip-path="url(#clip-path)">
              <path id="패스_15154" data-name="패스 15154" d="M.3,135.55.05.3,135.3.05l.25,135.5Z" transform="translate(0.2 0.2)" fill="#ffd985"/>
              <path id="패스_15155" data-name="패스 15155" d="M135.5,135.5H.5V.5h135ZM136,0H0V136H136V0Z" transform="translate(0 0)" fill="#99701d"/>
            </g>
          </g>
        </g>
        <path id="패스_15156" data-name="패스 15156" d="M8.92,46.754a8.552,8.552,0,0,1-7.54-12.57l6.15-11.56a8.55,8.55,0,0,1,15.1,8.035l-6.15,11.56A8.548,8.548,0,0,1,8.92,46.754" transform="translate(1.485 72.376)" fill="#f4c34a"/>
        <path id="패스_15157" data-name="패스 15157" d="M16.081,20.343a7.3,7.3,0,0,1,6.435,10.73l-6.15,11.56a7.288,7.288,0,0,1-6.45,3.87,7.2,7.2,0,0,1-3.425-.855,7.313,7.313,0,0,1-3.015-9.875L9.631,24.218a7.287,7.287,0,0,1,6.45-3.875m0-2.5a9.8,9.8,0,0,0-8.66,5.2L1.271,34.6a9.8,9.8,0,0,0,17.3,9.2l6.15-11.56a9.8,9.8,0,0,0-8.64-14.405" transform="translate(0.489 71.372)"/>
        <path id="패스_15158" data-name="패스 15158" d="M36.877,46.754a8.535,8.535,0,0,1-7.55-4.535l-6.155-11.56a8.55,8.55,0,0,1,15.095-8.035l6.15,11.56a8.554,8.554,0,0,1-7.54,12.57" transform="translate(88.698 72.376)" fill="#f4c34a"/>
        <path id="패스_15159" data-name="패스 15159" d="M31.715,20.343h0a7.287,7.287,0,0,1,6.45,3.875L44.32,35.773a7.3,7.3,0,0,1-12.89,6.86l-6.15-11.56a7.3,7.3,0,0,1,6.435-10.73m0-2.5a9.8,9.8,0,0,0-8.64,14.405l6.15,11.56a9.8,9.8,0,0,0,17.3-9.2l-6.15-11.56a9.8,9.8,0,0,0-8.66-5.2" transform="translate(87.695 71.372)"/>
        <path id="패스_15160" data-name="패스 15160" d="M47.521,116.97a44.889,44.889,0,0,1-34.685-15.36C4.891,92.78-2.139,76.085,1.206,60.295,3.621,48.885,11.111,40.07,22.866,34.8a1.1,1.1,0,0,0,.655-.72c1.435-5.6,7.915-24.3,31.065-30.29a55.653,55.653,0,0,1,13.88-1.76c20.92,0,39.365,11.935,45.11,23.475,4.98,9.99,4.62,16.29,3.96,19.15a1.082,1.082,0,0,0,.475,1.155c5.415,3.765,22.24,17.93,11.45,42.46-10.58,24.035-32.38,26.63-41.265,26.635a47.291,47.291,0,0,1-16.3-2.775l-.82,0a62.831,62.831,0,0,1-23.56,4.835" transform="translate(1.409 8.12)" fill="#fffef5"/>
        <path id="패스_15161" data-name="패스 15161" d="M69.463,4.28c20.67,0,38.455,11.67,43.99,22.78,4.87,9.77,4.46,15.725,3.865,18.32a2.331,2.331,0,0,0,.975,2.46c5.13,3.56,21.455,17.215,11.02,40.93-8.575,19.475-25.51,25.885-40.115,25.885a46.327,46.327,0,0,1-15.865-2.7,2.414,2.414,0,0,0-.85-.16,2.223,2.223,0,0,0-.9.19,61.2,61.2,0,0,1-23.065,4.73,43.9,43.9,0,0,1-33.755-14.945C.768,86.22-6.842,50.925,24.368,36.945a2.347,2.347,0,0,0,1.36-1.555A41.222,41.222,0,0,1,55.893,6.005,54.043,54.043,0,0,1,69.463,4.28m0-2.5h0a56.783,56.783,0,0,0-14.2,1.8c-23.82,6.165-30.485,25.43-31.96,31.19C11.213,40.1,3.478,49.22.978,61.04c-3.43,16.22,3.78,33.35,11.925,42.405,9.42,10.465,21.405,15.775,35.615,15.775a64.189,64.189,0,0,0,24.055-4.935,47.163,47.163,0,0,0,16.625,2.87c9.125,0,31.525-2.67,42.4-27.38,11.18-25.4-6.265-40.09-11.875-43.99.725-2.875,1.12-9.5-4.03-19.84C109.858,14.23,91.673,1.78,69.468,1.78" transform="translate(0.412 7.12)"/>
        <g id="그룹_16171" data-name="그룹 16171" transform="translate(10.641 57.982)" opacity="0.5" style="mix-blend-mode: multiply;isolation: isolate">
          <g id="그룹_16170" data-name="그룹 16170">
            <g id="그룹_16169" data-name="그룹 16169" clip-path="url(#clip-path-4)">
              <path id="패스_15162" data-name="패스 15162" d="M114.918,11.6c4.47,7.07,7.26,17.425,2.8,31.71-6.865,21.96-31.745,29.71-52.475,23.05a3.6,3.6,0,0,0-2.64.135c-6.15,2.805-33.99,13.51-60.47-8.5a43.274,43.274,0,0,0,3.825,5.065c21.415,23.8,51.055,13.125,57.295,10.5a3.357,3.357,0,0,1,2.465-.035c15.725,5.655,44.28,3.865,56.39-23.65,8.55-19.42-.61-32.18-7.185-38.275" transform="translate(-2.129 -11.598)" fill="#e8d6a7"/>
            </g>
          </g>
        </g>
        <path id="패스_15163" data-name="패스 15163" d="M13.935,5.778S7.06,11.148,7.66,17.488a6.757,6.757,0,0,0,3.635,5.3,6.572,6.572,0,0,0,8.035-2.01,6.324,6.324,0,0,0,.88-3.71c-.08-3.84-4.635-4.385-5.17-.75-.74,5,3.925,7.555,10.01,7.65" transform="translate(30.49 23.112)" fill="none" stroke="#000" stroke-linecap="round" stroke-linejoin="round" stroke-width="0.5"/>
        <g id="그룹_16174" data-name="그룹 16174" transform="translate(93.129 70.683)" opacity="0.4">
          <g id="그룹_16173" data-name="그룹 16173">
            <g id="그룹_16172" data-name="그룹 16172" clip-path="url(#clip-path-5)">
              <path id="패스_15164" data-name="패스 15164" d="M18.626,23.381a9.243,9.243,0,1,0,9.245-9.245,9.246,9.246,0,0,0-9.245,9.245" transform="translate(-18.625 -14.139)" fill="#ff9b73"/>
            </g>
          </g>
        </g>
        <g id="그룹_16177" data-name="그룹 16177" transform="translate(24.385 70.683)" opacity="0.4">
          <g id="그룹_16176" data-name="그룹 16176">
            <g id="그룹_16175" data-name="그룹 16175" clip-path="url(#clip-path-5)">
              <path id="패스_15165" data-name="패스 15165" d="M23.362,23.381a9.243,9.243,0,1,1-9.245-9.245,9.246,9.246,0,0,1,9.245,9.245" transform="translate(-4.877 -14.139)" fill="#ff9b73"/>
            </g>
          </g>
        </g>
        <path id="패스_15166" data-name="패스 15166" d="M13.089,28.933A8.2,8.2,0,1,0,8.014,18.508a8.2,8.2,0,0,0,5.075,10.425" transform="translate(30.256 51.942)"/>
        <path id="패스_15167" data-name="패스 15167" d="M11.73,15.274a1.705,1.705,0,1,1-1.7-1.7,1.707,1.707,0,0,1,1.7,1.7" transform="translate(33.28 54.276)" fill="#fff"/>
        <path id="패스_15168" data-name="패스 15168" d="M9.872,17.634c3.7,5.685,10.655,9.525,18.64,9.525s14.94-3.84,18.64-9.525" transform="translate(39.488 70.536)" fill="none" stroke="#000" stroke-linecap="round" stroke-linejoin="round" stroke-width="0.7"/>
        <path id="패스_15169" data-name="패스 15169" d="M21.881,28.933a8.2,8.2,0,1,0-5.075-10.425,8.2,8.2,0,0,0,5.075,10.425" transform="translate(65.424 51.942)"/>
        <path id="패스_15170" data-name="패스 15170" d="M20.521,15.274a1.7,1.7,0,1,1-1.705-1.7,1.707,1.707,0,0,1,1.705,1.7" transform="translate(68.444 54.276)" fill="#fff"/>
      </g>
    </g>
  </g>
</svg>
