<svg xmlns="http://www.w3.org/2000/svg" xmlns:xlink="http://www.w3.org/1999/xlink" width="136" height="136" viewBox="0 0 136 136">
  <defs>
    <clipPath id="clip-path">
      <rect id="사각형_30852" data-name="사각형 30852" width="136" height="136" fill="none"/>
    </clipPath>
    <clipPath id="clip-path-4">
      <rect id="사각형_30848" data-name="사각형 30848" width="18.486" height="18.486" fill="none"/>
    </clipPath>
    <clipPath id="clip-path-6">
      <rect id="사각형_30850" data-name="사각형 30850" width="123.439" height="66.617" fill="none"/>
    </clipPath>
  </defs>
  <g id="그룹_16356" data-name="그룹 16356" clip-path="url(#clip-path)">
    <g id="그룹_16355" data-name="그룹 16355" transform="translate(0 0)">
      <g id="그룹_16354" data-name="그룹 16354" clip-path="url(#clip-path)">
        <g id="그룹_16344" data-name="그룹 16344" opacity="0">
          <g id="그룹_16343" data-name="그룹 16343">
            <g id="그룹_16342" data-name="그룹 16342" clip-path="url(#clip-path)">
              <path id="패스_15217" data-name="패스 15217" d="M.3,135.55.05.3,135.3.05l.25,135.5Z" transform="translate(0.2 0.199)" fill="#ffd985"/>
              <path id="패스_15218" data-name="패스 15218" d="M135.5,135.5H.5V.5h135ZM136,0H0V136H136V0Z" transform="translate(0 0)" fill="#99701d"/>
            </g>
          </g>
        </g>
        <path id="패스_15219" data-name="패스 15219" d="M47.52,116.97c-13.845,0-25.515-5.165-34.68-15.36C4.9,92.785-2.14,76.09,1.205,60.3c2.41-11.415,9.9-20.23,21.65-25.5a1.1,1.1,0,0,0,.665-.72c1.43-5.59,7.885-24.3,31.065-30.29A55.662,55.662,0,0,1,68.47,2.03c20.91,0,39.36,11.935,45.1,23.475,4.98,9.995,4.62,16.29,3.96,19.15a1.107,1.107,0,0,0,.475,1.165c5.415,3.755,22.24,17.925,11.445,42.45-10.58,24.035-32.375,26.635-41.26,26.635A47.173,47.173,0,0,1,71.9,112.13l-1.315-1.14.5,1.145a62.724,62.724,0,0,1-23.56,4.835" transform="translate(1.41 8.12)" fill="#fffef5"/>
        <path id="패스_15220" data-name="패스 15220" d="M69.463,4.28c20.67,0,38.455,11.67,43.99,22.78,4.865,9.77,4.46,15.725,3.86,18.32a2.334,2.334,0,0,0,.98,2.46c5.13,3.56,21.455,17.215,11.02,40.93-8.575,19.475-25.51,25.885-40.12,25.885a46.319,46.319,0,0,1-15.86-2.695,2.414,2.414,0,0,0-.85-.16,2.223,2.223,0,0,0-.9.19,61.2,61.2,0,0,1-23.065,4.73,43.889,43.889,0,0,1-33.755-14.95c-14-15.55-21.605-50.845,9.6-64.825a2.347,2.347,0,0,0,1.36-1.555A41.221,41.221,0,0,1,55.893,6.005,54.043,54.043,0,0,1,69.463,4.28m0-2.5h0a56.783,56.783,0,0,0-14.2,1.8c-23.82,6.165-30.485,25.43-31.96,31.19C11.213,40.1,3.478,49.22.978,61.04-2.452,77.26,4.753,94.39,12.9,103.445c9.42,10.465,21.4,15.775,35.615,15.775a64.189,64.189,0,0,0,24.055-4.935,47.156,47.156,0,0,0,16.62,2.87c9.13,0,31.53-2.67,42.405-27.38,11.18-25.4-6.265-40.09-11.88-43.99.73-2.875,1.125-9.5-4.025-19.84C109.853,14.23,91.673,1.78,69.468,1.78" transform="translate(0.412 7.12)"/>
        <g id="그룹_16347" data-name="그룹 16347" transform="translate(93.045 79.796)" opacity="0.4">
          <g id="그룹_16346" data-name="그룹 16346">
            <g id="그룹_16345" data-name="그룹 16345" clip-path="url(#clip-path-4)">
              <path id="패스_15221" data-name="패스 15221" d="M18.609,25.2a9.243,9.243,0,1,0,9.245-9.245A9.246,9.246,0,0,0,18.609,25.2" transform="translate(-18.609 -15.96)" fill="#ff9b73"/>
            </g>
          </g>
        </g>
        <g id="그룹_16350" data-name="그룹 16350" transform="translate(24.3 79.796)" opacity="0.4">
          <g id="그룹_16349" data-name="그룹 16349">
            <g id="그룹_16348" data-name="그룹 16348" clip-path="url(#clip-path-4)">
              <path id="패스_15222" data-name="패스 15222" d="M23.345,25.2A9.242,9.242,0,1,1,14.1,15.959,9.246,9.246,0,0,1,23.345,25.2" transform="translate(-4.86 -15.96)" fill="#ff9b73"/>
            </g>
          </g>
        </g>
        <g id="그룹_16353" data-name="그룹 16353" transform="translate(10.641 57.983)" opacity="0.5" style="mix-blend-mode: multiply;isolation: isolate">
          <g id="그룹_16352" data-name="그룹 16352">
            <g id="그룹_16351" data-name="그룹 16351" clip-path="url(#clip-path-6)">
              <path id="패스_15223" data-name="패스 15223" d="M114.918,11.6c4.47,7.07,7.26,17.425,2.8,31.71-6.865,21.96-31.745,29.71-52.475,23.05a3.6,3.6,0,0,0-2.64.135c-6.15,2.805-33.99,13.51-60.47-8.5a43.275,43.275,0,0,0,3.825,5.065c21.415,23.8,51.055,13.125,57.295,10.5a3.357,3.357,0,0,1,2.465-.035c15.725,5.655,44.28,3.865,56.39-23.65,8.55-19.42-.61-32.18-7.185-38.275" transform="translate(-2.129 -11.598)" fill="#e8d6a7"/>
            </g>
          </g>
        </g>
        <path id="패스_15224" data-name="패스 15224" d="M13.935,5.778S7.06,11.148,7.66,17.488a6.757,6.757,0,0,0,3.635,5.3,6.574,6.574,0,0,0,8.035-2.01,6.324,6.324,0,0,0,.88-3.71c-.08-3.84-4.635-4.385-5.17-.75-.74,4.995,3.925,7.555,10.01,7.65" transform="translate(30.49 23.112)" fill="none" stroke="#000" stroke-linecap="round" stroke-linejoin="round" stroke-width="0.5"/>
        <path id="패스_15225" data-name="패스 15225" d="M17.584,43.239a15.047,15.047,0,0,1-8.22-2.475c-6.24-4.315-7.97-10.59-6.935-14.59a7.011,7.011,0,0,1,6.3-5.41c.275-.025.545-.04.82-.04a9.463,9.463,0,0,1,8.85,7.45c.975,4.04,2.02,7.485,4.92,8.75a2.613,2.613,0,0,1,1.54,2.3,2.728,2.728,0,0,1-1.375,2.545,11.98,11.98,0,0,1-5.895,1.475" transform="translate(8.596 82.896)" fill="#f4c34a"/>
        <path id="패스_15226" data-name="패스 15226" d="M10.551,22.974c3.635,0,6.765,2.885,7.64,6.495.9,3.73,2.04,8.03,5.635,9.6a1.485,1.485,0,0,1,.05,2.6,10.78,10.78,0,0,1-5.28,1.315,13.8,13.8,0,0,1-7.51-2.26C2.2,34.589,2.551,23.744,9.861,23.009a6.375,6.375,0,0,1,.69-.035m0-2.5c-.31,0-.625.015-.94.045a8.235,8.235,0,0,0-7.385,6.345c-1.175,4.555.67,11.245,7.44,15.925a16.276,16.276,0,0,0,8.93,2.7,13.2,13.2,0,0,0,6.5-1.63,3.987,3.987,0,0,0,2.02-3.695,3.863,3.863,0,0,0-2.285-3.38c-2.375-1.04-3.315-4.2-4.21-7.9a10.727,10.727,0,0,0-10.07-8.4" transform="translate(7.584 81.896)"/>
        <path id="패스_15227" data-name="패스 15227" d="M28.215,42.769a12.253,12.253,0,0,1-6.66-1.86,2.719,2.719,0,0,1-1.22-2.62,2.594,2.594,0,0,1,1.68-2.195c2.97-1.09,4.23-4.465,5.455-8.43a9.5,9.5,0,0,1,8.8-6.9,8.364,8.364,0,0,1,1.315.1,7.019,7.019,0,0,1,5.95,5.795c.785,4.06-1.335,10.2-7.835,14.125a15.1,15.1,0,0,1-7.48,1.985" transform="translate(81.265 83.056)" fill="#f4c34a"/>
        <path id="패스_15228" data-name="패스 15228" d="M37.267,23.014a7.035,7.035,0,0,1,1.115.09c7.25,1.19,6.92,12.035-2.33,17.615a13.769,13.769,0,0,1-6.835,1.805,10.95,10.95,0,0,1-5.985-1.665,1.482,1.482,0,0,1,.21-2.59c3.69-1.345,5.09-5.565,6.225-9.235a8.3,8.3,0,0,1,7.6-6.02m0-2.5h0a10.768,10.768,0,0,0-9.99,7.78c-1.125,3.645-2.26,6.74-4.69,7.63a3.846,3.846,0,0,0-2.495,3.23,3.968,3.968,0,0,0,1.785,3.81,13.52,13.52,0,0,0,7.34,2.06,16.43,16.43,0,0,0,8.13-2.165c7.045-4.25,9.3-10.81,8.41-15.43a8.217,8.217,0,0,0-6.97-6.79,9.258,9.258,0,0,0-1.52-.125" transform="translate(80.264 82.056)"/>
        <path id="패스_15229" data-name="패스 15229" d="M12.305,19.41a7.769,7.769,0,0,0,6.555,3.35,7.766,7.766,0,0,0,6.55-3.35" transform="translate(49.22 77.64)" fill="none" stroke="#000" stroke-linecap="round" stroke-linejoin="round" stroke-width="0.7"/>
        <path id="패스_15230" data-name="패스 15230" d="M27.594,44.787a5.933,5.933,0,0,1-5.855,0c-6.305-3.6-13.5-8.75-15.945-16.935a15.45,15.45,0,0,1-.44-8.03c2.465-10.085,17.01-9.815,19.31.195,2.3-10.01,16.85-10.28,19.315-.195a15.45,15.45,0,0,1-.44,8.03c-2.445,8.185-9.64,13.335-15.945,16.935" transform="translate(20.021 49.533)" fill="#ec8d7e"/>
        <path id="패스_15231" data-name="패스 15231" d="M27.594,44.787a5.933,5.933,0,0,1-5.855,0c-6.305-3.6-13.5-8.75-15.945-16.935a15.45,15.45,0,0,1-.44-8.03c2.465-10.085,17.01-9.815,19.31.195,2.3-10.01,16.85-10.28,19.315-.195a15.45,15.45,0,0,1-.44,8.03C41.094,36.037,33.9,41.187,27.594,44.787Z" transform="translate(20.021 49.533)" fill="none" stroke="#db6b63" stroke-linejoin="round" stroke-width="0.5"/>
        <path id="패스_15232" data-name="패스 15232" d="M10.583,15.447A2.143,2.143,0,1,1,8.443,13.3a2.139,2.139,0,0,1,2.14,2.145" transform="translate(25.192 53.208)" fill="#fff"/>
        <path id="패스_15233" data-name="패스 15233" d="M36.919,44.787a5.933,5.933,0,0,1-5.855,0c-6.305-3.6-13.5-8.75-15.945-16.935a15.45,15.45,0,0,1-.44-8.03c2.465-10.085,17.01-9.815,19.31.195,2.305-10.01,16.85-10.28,19.315-.195a15.45,15.45,0,0,1-.44,8.03c-2.445,8.185-9.64,13.335-15.945,16.935" transform="translate(57.321 49.533)" fill="#ec8d7e"/>
        <path id="패스_15234" data-name="패스 15234" d="M36.919,44.787a5.933,5.933,0,0,1-5.855,0c-6.305-3.6-13.5-8.75-15.945-16.935a15.45,15.45,0,0,1-.44-8.03c2.465-10.085,17.01-9.815,19.31.195,2.305-10.01,16.85-10.28,19.315-.195a15.45,15.45,0,0,1-.44,8.03C50.419,36.037,43.224,41.187,36.919,44.787Z" transform="translate(57.321 49.533)" fill="none" stroke="#db6b63" stroke-linejoin="round" stroke-width="0.5"/>
        <path id="패스_15235" data-name="패스 15235" d="M19.908,15.447A2.143,2.143,0,1,1,17.763,13.3a2.14,2.14,0,0,1,2.145,2.145" transform="translate(62.492 53.208)" fill="#fff"/>
      </g>
    </g>
  </g>
</svg>
