<svg id="그룹_16360" data-name="그룹 16360" xmlns="http://www.w3.org/2000/svg" xmlns:xlink="http://www.w3.org/1999/xlink" width="136" height="136" viewBox="0 0 136 136">
  <defs>
    <clipPath id="clip-path">
      <rect id="사각형_30780" data-name="사각형 30780" width="136" height="136" fill="none"/>
    </clipPath>
    <clipPath id="clip-path-4">
      <rect id="사각형_30778" data-name="사각형 30778" width="123.439" height="66.617" fill="none"/>
    </clipPath>
  </defs>
  <g id="그룹_16132" data-name="그룹 16132" clip-path="url(#clip-path)">
    <g id="그룹_16131" data-name="그룹 16131" transform="translate(0 0)">
      <g id="그룹_16130" data-name="그룹 16130" clip-path="url(#clip-path)">
        <g id="그룹_16126" data-name="그룹 16126" opacity="0">
          <g id="그룹_16125" data-name="그룹 16125">
            <g id="그룹_16124" data-name="그룹 16124" clip-path="url(#clip-path)">
              <path id="패스_15099" data-name="패스 15099" d="M.3,135.55.05.3,135.3.05l.25,135.5Z" transform="translate(0.2 0.201)" fill="#ffd985"/>
              <path id="패스_15100" data-name="패스 15100" d="M135.5,135.5H.5V.5h135ZM136,0H0V136H136V0Z" transform="translate(0 0)" fill="#99701d"/>
            </g>
          </g>
        </g>
        <path id="패스_15101" data-name="패스 15101" d="M47.528,116.965c-13.85,0-25.52-5.165-34.685-15.36C4.9,92.78-2.137,76.09,1.2,60.3c2.415-11.415,9.905-20.23,21.655-25.5a1.115,1.115,0,0,0,.665-.72c1.435-5.595,7.91-24.3,31.065-30.29A55.692,55.692,0,0,1,68.473,2.03c20.915,0,39.36,11.93,45.1,23.47,4.98,10,4.62,16.3,3.96,19.155a1.1,1.1,0,0,0,.475,1.16c5.415,3.755,22.24,17.925,11.445,42.455C118.883,112.3,97.083,114.9,88.2,114.9a47.2,47.2,0,0,1-16.3-2.775l-.82.01a62.853,62.853,0,0,1-23.555,4.83" transform="translate(1.407 8.12)" fill="#fffef5"/>
        <path id="패스_15102" data-name="패스 15102" d="M69.463,4.28c20.67,0,38.455,11.67,43.99,22.78,4.865,9.77,4.46,15.725,3.86,18.315a2.338,2.338,0,0,0,.98,2.465c5.13,3.56,21.455,17.215,11.02,40.93-8.575,19.475-25.51,25.885-40.12,25.885a46.319,46.319,0,0,1-15.86-2.695,2.414,2.414,0,0,0-.85-.16,2.223,2.223,0,0,0-.9.19,61.2,61.2,0,0,1-23.065,4.73,43.889,43.889,0,0,1-33.755-14.95C.768,86.22-6.842,50.925,24.368,36.945a2.347,2.347,0,0,0,1.36-1.555A41.221,41.221,0,0,1,55.893,6.005,54.043,54.043,0,0,1,69.463,4.28m0-2.5h0a56.783,56.783,0,0,0-14.2,1.8c-23.82,6.165-30.485,25.43-31.96,31.19C11.213,40.1,3.478,49.22.978,61.04-2.452,77.26,4.753,94.39,12.9,103.445c9.42,10.465,21.4,15.775,35.615,15.775a64.189,64.189,0,0,0,24.055-4.935,47.156,47.156,0,0,0,16.62,2.87c9.13,0,31.53-2.67,42.405-27.38,11.18-25.4-6.265-40.09-11.88-43.99.73-2.875,1.125-9.5-4.025-19.84C109.853,14.23,91.673,1.78,69.468,1.78" transform="translate(0.412 7.12)"/>
        <g id="그룹_16129" data-name="그룹 16129" transform="translate(10.641 57.983)" opacity="0.5" style="mix-blend-mode: multiply;isolation: isolate">
          <g id="그룹_16128" data-name="그룹 16128">
            <g id="그룹_16127" data-name="그룹 16127" clip-path="url(#clip-path-4)">
              <path id="패스_15103" data-name="패스 15103" d="M114.918,11.6c4.47,7.07,7.26,17.425,2.8,31.71-6.865,21.96-31.745,29.71-52.475,23.05a3.6,3.6,0,0,0-2.64.135c-6.15,2.8-33.99,13.51-60.47-8.5a43.276,43.276,0,0,0,3.825,5.065c21.415,23.795,51.055,13.125,57.3,10.5a3.357,3.357,0,0,1,2.465-.035c15.725,5.655,44.28,3.865,56.39-23.65,8.55-19.42-.61-32.18-7.185-38.275" transform="translate(-2.129 -11.598)" fill="#e8d6a7"/>
            </g>
          </g>
        </g>
        <path id="패스_15104" data-name="패스 15104" d="M13.935,5.778S7.06,11.148,7.66,17.488a6.757,6.757,0,0,0,3.635,5.3,6.574,6.574,0,0,0,8.035-2.01,6.324,6.324,0,0,0,.88-3.71c-.08-3.84-4.635-4.385-5.17-.75-.74,5,3.925,7.555,10.01,7.65" transform="translate(30.49 23.112)" fill="none" stroke="#000" stroke-linecap="round" stroke-linejoin="round" stroke-width="0.5"/>
        <path id="패스_15105" data-name="패스 15105" d="M17.584,43.234a15.06,15.06,0,0,1-8.22-2.475c-6.24-4.31-7.97-10.58-6.935-14.585a7.011,7.011,0,0,1,6.295-5.41c.275-.025.545-.04.82-.04a9.458,9.458,0,0,1,8.85,7.445c.975,4.04,2.02,7.485,4.92,8.76a2.6,2.6,0,0,1,1.54,2.285,2.723,2.723,0,0,1-1.375,2.545,11.927,11.927,0,0,1-5.9,1.475" transform="translate(8.596 82.896)" fill="#f4c34a"/>
        <path id="패스_15106" data-name="패스 15106" d="M10.551,22.974c3.635,0,6.765,2.885,7.64,6.495.9,3.73,2.04,8.03,5.635,9.6a1.485,1.485,0,0,1,.05,2.6,10.78,10.78,0,0,1-5.28,1.315,13.8,13.8,0,0,1-7.51-2.26C2.2,34.589,2.551,23.744,9.861,23.009a6.373,6.373,0,0,1,.69-.035m0-2.5c-.31,0-.625.015-.94.045a8.235,8.235,0,0,0-7.385,6.345c-1.175,4.555.67,11.245,7.44,15.925a16.276,16.276,0,0,0,8.93,2.7,13.2,13.2,0,0,0,6.5-1.63,3.987,3.987,0,0,0,2.02-3.695,3.863,3.863,0,0,0-2.285-3.38c-2.375-1.04-3.315-4.195-4.21-7.9a10.727,10.727,0,0,0-10.07-8.4" transform="translate(7.584 81.896)"/>
        <path id="패스_15107" data-name="패스 15107" d="M28.22,42.774a12.274,12.274,0,0,1-6.665-1.865,2.71,2.71,0,0,1-1.22-2.62,2.591,2.591,0,0,1,1.685-2.195c2.97-1.085,4.22-4.46,5.45-8.43a9.507,9.507,0,0,1,8.79-6.9,7.932,7.932,0,0,1,1.325.1,7.03,7.03,0,0,1,5.95,5.795c.78,4.06-1.34,10.205-7.84,14.125a15.076,15.076,0,0,1-7.475,1.985" transform="translate(81.265 83.056)" fill="#f4c34a"/>
        <path id="패스_15108" data-name="패스 15108" d="M37.266,23.014a7.035,7.035,0,0,1,1.115.09c7.245,1.19,6.92,12.035-2.33,17.615a13.769,13.769,0,0,1-6.835,1.8,10.95,10.95,0,0,1-5.985-1.665,1.482,1.482,0,0,1,.21-2.59c3.69-1.345,5.09-5.565,6.225-9.235a8.3,8.3,0,0,1,7.6-6.02m0-2.5h0a10.768,10.768,0,0,0-9.99,7.78c-1.125,3.645-2.26,6.74-4.69,7.63a3.846,3.846,0,0,0-2.5,3.23,3.968,3.968,0,0,0,1.785,3.81,13.52,13.52,0,0,0,7.34,2.06,16.43,16.43,0,0,0,8.13-2.165c7.045-4.25,9.3-10.81,8.41-15.43a8.217,8.217,0,0,0-6.97-6.79,9.258,9.258,0,0,0-1.52-.125" transform="translate(80.264 82.056)"/>
        <path id="패스_15109" data-name="패스 15109" d="M18.788,38.181h0a6.466,6.466,0,0,1-6.465-6.465v-7.75a6.465,6.465,0,1,1,12.93,0v7.75a6.466,6.466,0,0,1-6.465,6.465" transform="translate(49.292 70.004)" fill="#ec8d7e"/>
        <path id="패스_15110" data-name="패스 15110" d="M22.555,17.809V19.8a3.719,3.719,0,0,1-3.73,3.71h-2.49a3.719,3.719,0,0,1-3.73-3.71v-1.99" transform="translate(50.42 71.236)" fill="#fff"/>
        <path id="패스_15111" data-name="패스 15111" d="M18.788,38.181h0a6.466,6.466,0,0,1-6.465-6.465v-7.75a6.465,6.465,0,1,1,12.93,0v7.75A6.466,6.466,0,0,1,18.788,38.181Z" transform="translate(49.292 70.004)" fill="none" stroke="#000" stroke-miterlimit="10" stroke-width="0.7"/>
        <path id="패스_15112" data-name="패스 15112" d="M27.134,13.094l3.9,7.885a3.02,3.02,0,0,0,2.27,1.655L42,23.9a3.018,3.018,0,0,1,1.675,5.15l-6.3,6.14a3.022,3.022,0,0,0-.865,2.675L38,46.534a3.022,3.022,0,0,1-4.385,3.185l-7.785-4.1a3,3,0,0,0-2.81,0l-7.785,4.1a3.024,3.024,0,0,1-4.385-3.185l1.49-8.67a3.039,3.039,0,0,0-.87-2.675l-6.3-6.14A3.021,3.021,0,0,1,6.844,23.9l8.705-1.265a3.019,3.019,0,0,0,2.275-1.655l3.89-7.885a3.023,3.023,0,0,1,5.42,0" transform="translate(17.021 45.641)" fill="#feca01"/>
        <path id="패스_15113" data-name="패스 15113" d="M6.87,25.035l8.875-1.29a3.87,3.87,0,0,0,2.91-2.115l3.965-8.04a1.48,1.48,0,0,1,1.875-.705l-.15-.3a1.511,1.511,0,0,0-2.715,0l-3.97,8.04a3.874,3.874,0,0,1-2.91,2.115L5.875,24.03a1.516,1.516,0,0,0-.84,2.585l.945.92a1.5,1.5,0,0,1,.89-2.5" transform="translate(18.305 46.95)" fill="#fff"/>
        <path id="패스_15114" data-name="패스 15114" d="M27.134,13.094l3.9,7.885a3.02,3.02,0,0,0,2.27,1.655L42,23.9a3.018,3.018,0,0,1,1.675,5.15l-6.3,6.14a3.022,3.022,0,0,0-.865,2.675L38,46.534a3.022,3.022,0,0,1-4.385,3.185l-7.785-4.1a3,3,0,0,0-2.81,0l-7.785,4.1a3.024,3.024,0,0,1-4.385-3.185l1.49-8.67a3.039,3.039,0,0,0-.87-2.675l-6.3-6.14A3.021,3.021,0,0,1,6.844,23.9l8.705-1.265a3.019,3.019,0,0,0,2.275-1.655l3.89-7.885A3.023,3.023,0,0,1,27.134,13.094Z" transform="translate(17.021 45.641)" fill="none" stroke="#ef8e00" stroke-linecap="round" stroke-linejoin="round" stroke-width="0.65"/>
        <path id="패스_15115" data-name="패스 15115" d="M37.788,13.094l3.89,7.885a3.028,3.028,0,0,0,2.275,1.655L52.658,23.9a3.018,3.018,0,0,1,1.675,5.15l-6.3,6.14a3.022,3.022,0,0,0-.865,2.675l1.485,8.67a3.022,3.022,0,0,1-4.385,3.185l-7.785-4.1a3,3,0,0,0-2.81,0l-7.785,4.1A3.024,3.024,0,0,1,21.5,46.534l1.49-8.67a3.039,3.039,0,0,0-.87-2.675l-6.3-6.14A3.021,3.021,0,0,1,17.5,23.9L26.2,22.634a3.02,3.02,0,0,0,2.275-1.655l3.89-7.885a3.023,3.023,0,0,1,5.42,0" transform="translate(59.637 45.641)" fill="#feca01"/>
        <path id="패스_15116" data-name="패스 15116" d="M17.525,25.035l8.875-1.29a3.871,3.871,0,0,0,2.91-2.115l3.965-8.04a1.48,1.48,0,0,1,1.875-.705l-.15-.3a1.511,1.511,0,0,0-2.715,0l-3.97,8.04a3.874,3.874,0,0,1-2.91,2.115L16.53,24.03a1.516,1.516,0,0,0-.84,2.585l.945.92a1.5,1.5,0,0,1,.89-2.5" transform="translate(60.925 46.95)" fill="#fff"/>
        <path id="패스_15117" data-name="패스 15117" d="M37.788,13.094l3.89,7.885a3.028,3.028,0,0,0,2.275,1.655L52.658,23.9a3.018,3.018,0,0,1,1.675,5.15l-6.3,6.14a3.022,3.022,0,0,0-.865,2.675l1.485,8.67a3.022,3.022,0,0,1-4.385,3.185l-7.785-4.1a3,3,0,0,0-2.81,0l-7.785,4.1A3.024,3.024,0,0,1,21.5,46.534l1.49-8.67a3.039,3.039,0,0,0-.87-2.675l-6.3-6.14A3.021,3.021,0,0,1,17.5,23.9L26.2,22.634a3.02,3.02,0,0,0,2.275-1.655l3.89-7.885A3.023,3.023,0,0,1,37.788,13.094Z" transform="translate(59.637 45.641)" fill="none" stroke="#ef8e00" stroke-linecap="round" stroke-linejoin="round" stroke-width="0.65"/>
      </g>
    </g>
  </g>
</svg>
