<svg id="그룹_16359" data-name="그룹 16359" xmlns="http://www.w3.org/2000/svg" xmlns:xlink="http://www.w3.org/1999/xlink" width="136" height="136" viewBox="0 0 136 136">
  <defs>
    <clipPath id="clip-path">
      <rect id="사각형_30776" data-name="사각형 30776" width="136" height="136" fill="none"/>
    </clipPath>
    <clipPath id="clip-path-4">
      <rect id="사각형_30772" data-name="사각형 30772" width="123.438" height="66.618" fill="none"/>
    </clipPath>
    <clipPath id="clip-path-5">
      <rect id="사각형_30773" data-name="사각형 30773" width="18.487" height="18.486" fill="none"/>
    </clipPath>
    <clipPath id="clip-path-6">
      <rect id="사각형_30774" data-name="사각형 30774" width="18.486" height="18.486" fill="none"/>
    </clipPath>
  </defs>
  <g id="그룹_16122" data-name="그룹 16122" clip-path="url(#clip-path)">
    <g id="그룹_16121" data-name="그룹 16121" transform="translate(0 0)">
      <g id="그룹_16120" data-name="그룹 16120" clip-path="url(#clip-path)">
        <g id="그룹_16110" data-name="그룹 16110" opacity="0">
          <g id="그룹_16109" data-name="그룹 16109">
            <g id="그룹_16108" data-name="그룹 16108" clip-path="url(#clip-path)">
              <path id="패스_15082" data-name="패스 15082" d="M.3,135.55.05.3,135.3.05l.25,135.5Z" transform="translate(0.199 0.199)" fill="#ffd985"/>
              <path id="패스_15083" data-name="패스 15083" d="M135.5,135.5H.5V.5h135ZM136,0H0V136H136V0Z" transform="translate(0 0)" fill="#99701d"/>
            </g>
          </g>
        </g>
        <path id="패스_15084" data-name="패스 15084" d="M8.909,46.753a8.548,8.548,0,0,1-7.535-12.57l6.15-11.555a8.549,8.549,0,1,1,15.1,8.03l-6.15,11.565A8.555,8.555,0,0,1,8.909,46.753Z" transform="translate(1.491 72.372)" fill="#f4c34a"/>
        <path id="패스_15085" data-name="패스 15085" d="M16.081,20.343a7.3,7.3,0,0,1,6.435,10.73l-6.15,11.56a7.288,7.288,0,0,1-6.45,3.87,7.168,7.168,0,0,1-3.42-.855,7.31,7.31,0,0,1-3.02-9.875l6.155-11.56a7.292,7.292,0,0,1,6.45-3.87m0-2.5a9.8,9.8,0,0,0-8.66,5.2L1.271,34.6a9.8,9.8,0,0,0,17.3,9.2l6.155-11.56a9.8,9.8,0,0,0-8.645-14.405" transform="translate(0.489 71.372)"/>
        <path id="패스_15086" data-name="패스 15086" d="M36.888,46.753a8.555,8.555,0,0,1-7.56-4.53l-6.15-11.565a8.549,8.549,0,1,1,15.095-8.03l6.15,11.555a8.548,8.548,0,0,1-7.535,12.57" transform="translate(88.692 72.372)" fill="#f4c34a"/>
        <path id="패스_15087" data-name="패스 15087" d="M31.717,20.343h0a7.292,7.292,0,0,1,6.45,3.87l6.155,11.56a7.31,7.31,0,0,1-3.02,9.875,7.168,7.168,0,0,1-3.42.855,7.288,7.288,0,0,1-6.45-3.87l-6.15-11.56a7.3,7.3,0,0,1,6.435-10.73m0-2.5a9.8,9.8,0,0,0-8.645,14.405l6.155,11.56a9.8,9.8,0,0,0,17.3-9.2l-6.15-11.56a9.8,9.8,0,0,0-8.66-5.2" transform="translate(87.693 71.372)"/>
        <path id="패스_15088" data-name="패스 15088" d="M47.524,116.97c-13.845,0-25.515-5.165-34.685-15.36C4.894,92.785-2.136,76.09,1.2,60.3c2.415-11.415,9.905-20.23,21.66-25.5a1.107,1.107,0,0,0,.66-.725c1.43-5.585,7.9-24.29,31.06-30.285A55.663,55.663,0,0,1,68.469,2.03c20.915,0,39.36,11.935,45.105,23.475,4.98,9.99,4.62,16.29,3.96,19.15a1.1,1.1,0,0,0,.48,1.165c5.415,3.755,22.235,17.925,11.445,42.45-10.58,24.035-32.38,26.635-41.26,26.635a47.152,47.152,0,0,1-16.3-2.775l-1.315-1.14.495,1.145a62.724,62.724,0,0,1-23.56,4.835" transform="translate(1.411 8.12)" fill="#fffef5"/>
        <path id="패스_15089" data-name="패스 15089" d="M69.463,4.28c20.67,0,38.455,11.67,43.99,22.78,4.87,9.77,4.46,15.725,3.865,18.32a2.331,2.331,0,0,0,.975,2.46c5.13,3.56,21.455,17.215,11.02,40.93-8.575,19.475-25.505,25.885-40.115,25.885a46.327,46.327,0,0,1-15.865-2.695,2.414,2.414,0,0,0-.85-.16,2.222,2.222,0,0,0-.9.19,61.194,61.194,0,0,1-23.06,4.73,43.9,43.9,0,0,1-33.76-14.945c-14-15.555-21.605-50.85,9.61-64.83a2.352,2.352,0,0,0,1.355-1.555A41.221,41.221,0,0,1,55.893,6.005,54.043,54.043,0,0,1,69.463,4.28m0-2.5h0a56.783,56.783,0,0,0-14.2,1.8c-23.82,6.165-30.485,25.43-31.96,31.19C11.213,40.1,3.478,49.22.978,61.04c-3.43,16.22,3.78,33.35,11.925,42.405,9.425,10.465,21.405,15.775,35.62,15.775a64.181,64.181,0,0,0,24.05-4.935,47.051,47.051,0,0,0,16.625,2.87c9.125,0,31.525-2.67,42.4-27.38,11.18-25.4-6.265-40.09-11.875-43.99.725-2.875,1.12-9.5-4.03-19.84C109.858,14.23,91.673,1.78,69.468,1.78" transform="translate(0.412 7.12)"/>
        <g id="그룹_16113" data-name="그룹 16113" transform="translate(10.641 57.982)" opacity="0.5" style="mix-blend-mode: multiply;isolation: isolate">
          <g id="그룹_16112" data-name="그룹 16112">
            <g id="그룹_16111" data-name="그룹 16111" clip-path="url(#clip-path-4)">
              <path id="패스_15090" data-name="패스 15090" d="M114.918,11.6c4.47,7.07,7.26,17.425,2.8,31.71-6.865,21.96-31.745,29.71-52.475,23.05a3.6,3.6,0,0,0-2.64.135c-6.15,2.805-33.99,13.51-60.47-8.5a43.273,43.273,0,0,0,3.825,5.065c21.415,23.8,51.055,13.125,57.3,10.5a3.357,3.357,0,0,1,2.465-.035c15.725,5.655,44.28,3.865,56.39-23.65,8.55-19.42-.61-32.18-7.185-38.275" transform="translate(-2.129 -11.598)" fill="#e8d6a7"/>
            </g>
          </g>
        </g>
        <path id="패스_15091" data-name="패스 15091" d="M13.935,5.778S7.06,11.148,7.66,17.488a6.757,6.757,0,0,0,3.635,5.3,6.574,6.574,0,0,0,8.035-2.01,6.325,6.325,0,0,0,.88-3.71c-.08-3.84-4.635-4.385-5.17-.75-.74,4.995,3.925,7.555,10.01,7.65" transform="translate(30.49 23.112)" fill="none" stroke="#000" stroke-linecap="round" stroke-linejoin="round" stroke-width="0.5"/>
        <g id="그룹_16116" data-name="그룹 16116" transform="translate(93.129 70.683)" opacity="0.4">
          <g id="그룹_16115" data-name="그룹 16115">
            <g id="그룹_16114" data-name="그룹 16114" clip-path="url(#clip-path-5)">
              <path id="패스_15092" data-name="패스 15092" d="M18.626,23.381a9.243,9.243,0,1,0,9.245-9.245,9.246,9.246,0,0,0-9.245,9.245" transform="translate(-18.625 -14.139)" fill="#ff9b73"/>
            </g>
          </g>
        </g>
        <g id="그룹_16119" data-name="그룹 16119" transform="translate(24.385 70.683)" opacity="0.4">
          <g id="그룹_16118" data-name="그룹 16118">
            <g id="그룹_16117" data-name="그룹 16117" clip-path="url(#clip-path-6)">
              <path id="패스_15093" data-name="패스 15093" d="M23.362,23.381a9.243,9.243,0,1,1-9.245-9.245,9.246,9.246,0,0,1,9.245,9.245" transform="translate(-4.877 -14.139)" fill="#ff9b73"/>
            </g>
          </g>
        </g>
        <path id="패스_15094" data-name="패스 15094" d="M9.872,17.634c3.7,5.685,10.655,9.525,18.64,9.525s14.94-3.84,18.64-9.525" transform="translate(39.488 70.536)" fill="none" stroke="#000" stroke-linecap="round" stroke-linejoin="round" stroke-width="0.7"/>
        <path id="패스_15095" data-name="패스 15095" d="M7,16.621A11.307,11.307,0,0,1,15.09,12" transform="translate(28 47.984)" fill="none" stroke="#000" stroke-linecap="round" stroke-linejoin="round" stroke-width="0.5"/>
        <path id="패스_15096" data-name="패스 15096" d="M26.619,16.621A11.307,11.307,0,0,0,18.529,12" transform="translate(74.116 47.984)" fill="none" stroke="#000" stroke-linecap="round" stroke-linejoin="round" stroke-width="0.5"/>
        <path id="패스_15097" data-name="패스 15097" d="M7.485,14.593a9.66,9.66,0,0,0,8.15,4.165,9.657,9.657,0,0,0,8.145-4.165" transform="translate(29.94 58.372)" fill="none" stroke="#000" stroke-linecap="round" stroke-linejoin="round" stroke-width="0.7"/>
        <path id="패스_15098" data-name="패스 15098" d="M16.4,14.593a9.66,9.66,0,0,0,8.15,4.165A9.657,9.657,0,0,0,32.7,14.593" transform="translate(65.616 58.372)" fill="none" stroke="#000" stroke-linecap="round" stroke-linejoin="round" stroke-width="0.7"/>
      </g>
    </g>
  </g>
</svg>
