<svg id="그룹_16357" data-name="그룹 16357" xmlns="http://www.w3.org/2000/svg" xmlns:xlink="http://www.w3.org/1999/xlink" width="136" height="136" viewBox="0 0 136 136">
  <defs>
    <clipPath id="clip-path">
      <rect id="사각형_30792" data-name="사각형 30792" width="136" height="136" fill="none"/>
    </clipPath>
    <clipPath id="clip-path-4">
      <rect id="사각형_30788" data-name="사각형 30788" width="123.438" height="66.618" fill="none"/>
    </clipPath>
    <clipPath id="clip-path-5">
      <rect id="사각형_30789" data-name="사각형 30789" width="18.487" height="18.486" fill="none"/>
    </clipPath>
    <clipPath id="clip-path-6">
      <rect id="사각형_30790" data-name="사각형 30790" width="18.486" height="18.486" fill="none"/>
    </clipPath>
  </defs>
  <g id="그룹_16165" data-name="그룹 16165" clip-path="url(#clip-path)">
    <g id="그룹_16164" data-name="그룹 16164" transform="translate(0 0)">
      <g id="그룹_16163" data-name="그룹 16163" clip-path="url(#clip-path)">
        <g id="그룹_16153" data-name="그룹 16153" opacity="0">
          <g id="그룹_16152" data-name="그룹 16152">
            <g id="그룹_16151" data-name="그룹 16151" clip-path="url(#clip-path)">
              <path id="패스_15137" data-name="패스 15137" d="M.3,135.549.05.3,135.3.049l.25,135.5Z" transform="translate(0.199 0.198)" fill="#ffd985"/>
              <path id="패스_15138" data-name="패스 15138" d="M135.5,135.5H.5V.5h135ZM136,0H0V136H136V0Z" transform="translate(0 0)" fill="#99701d"/>
            </g>
          </g>
        </g>
        <path id="패스_15139" data-name="패스 15139" d="M47.526,116.966c-13.845,0-25.515-5.165-34.69-15.36C4.891,92.776-2.139,76.086,1.206,60.3c2.415-11.415,9.9-20.23,21.655-25.495a1.131,1.131,0,0,0,.66-.725c1.43-5.585,7.9-24.295,31.065-30.285a55.663,55.663,0,0,1,13.885-1.76c20.915,0,39.36,11.93,45.1,23.47,4.98,10,4.62,16.3,3.96,19.155a1.087,1.087,0,0,0,.475,1.16c5.415,3.755,22.24,17.93,11.445,42.455C118.881,112.3,97.081,114.9,88.2,114.9a47.2,47.2,0,0,1-16.3-2.775l-.82.01a62.826,62.826,0,0,1-23.555,4.83" transform="translate(1.409 8.124)" fill="#fffef5"/>
        <path id="패스_15140" data-name="패스 15140" d="M69.463,4.28c20.67,0,38.455,11.67,43.99,22.78,4.87,9.77,4.46,15.725,3.86,18.32a2.334,2.334,0,0,0,.98,2.46c5.13,3.56,21.455,17.215,11.02,40.93-8.575,19.475-25.51,25.885-40.12,25.885a46.318,46.318,0,0,1-15.86-2.7,2.414,2.414,0,0,0-.85-.16,2.223,2.223,0,0,0-.9.19,61.2,61.2,0,0,1-23.065,4.73,43.889,43.889,0,0,1-33.755-14.95c-14-15.55-21.605-50.845,9.605-64.825a2.347,2.347,0,0,0,1.36-1.555A41.222,41.222,0,0,1,55.893,6.005,54.044,54.044,0,0,1,69.463,4.28m0-2.5h0a56.783,56.783,0,0,0-14.2,1.8c-23.82,6.165-30.485,25.43-31.96,31.19C11.213,40.1,3.478,49.22.978,61.04-2.452,77.26,4.753,94.39,12.9,103.445c9.42,10.465,21.4,15.775,35.615,15.775a64.189,64.189,0,0,0,24.055-4.935,47.155,47.155,0,0,0,16.62,2.87c9.13,0,31.53-2.67,42.405-27.38,11.18-25.4-6.265-40.09-11.875-43.99.725-2.875,1.12-9.5-4.03-19.84C109.858,14.23,91.673,1.78,69.468,1.78" transform="translate(0.412 7.12)"/>
        <g id="그룹_16156" data-name="그룹 16156" transform="translate(10.641 57.983)" opacity="0.5" style="mix-blend-mode: multiply;isolation: isolate">
          <g id="그룹_16155" data-name="그룹 16155">
            <g id="그룹_16154" data-name="그룹 16154" clip-path="url(#clip-path-4)">
              <path id="패스_15141" data-name="패스 15141" d="M114.918,11.6c4.47,7.07,7.26,17.425,2.8,31.71-6.865,21.96-31.745,29.71-52.475,23.05a3.6,3.6,0,0,0-2.64.135c-6.15,2.805-33.99,13.51-60.47-8.5a43.274,43.274,0,0,0,3.825,5.065c21.415,23.8,51.055,13.125,57.295,10.5a3.357,3.357,0,0,1,2.465-.035c15.725,5.655,44.28,3.865,56.39-23.65,8.55-19.42-.61-32.18-7.185-38.275" transform="translate(-2.129 -11.598)" fill="#e8d6a7"/>
            </g>
          </g>
        </g>
        <path id="패스_15142" data-name="패스 15142" d="M13.935,5.778S7.06,11.148,7.66,17.488a6.757,6.757,0,0,0,3.635,5.3,6.574,6.574,0,0,0,8.035-2.01,6.324,6.324,0,0,0,.88-3.71c-.08-3.84-4.635-4.385-5.17-.75-.74,5,3.925,7.555,10.01,7.65" transform="translate(30.49 23.112)" fill="none" stroke="#000" stroke-linecap="round" stroke-linejoin="round" stroke-width="0.5"/>
        <g id="그룹_16159" data-name="그룹 16159" transform="translate(93.129 65.863)" opacity="0.4">
          <g id="그룹_16158" data-name="그룹 16158">
            <g id="그룹_16157" data-name="그룹 16157" clip-path="url(#clip-path-5)">
              <path id="패스_15143" data-name="패스 15143" d="M18.626,22.417a9.243,9.243,0,1,0,9.245-9.245,9.246,9.246,0,0,0-9.245,9.245" transform="translate(-18.625 -13.174)" fill="#ff9b73"/>
            </g>
          </g>
        </g>
        <g id="그룹_16162" data-name="그룹 16162" transform="translate(24.385 65.863)" opacity="0.4">
          <g id="그룹_16161" data-name="그룹 16161">
            <g id="그룹_16160" data-name="그룹 16160" clip-path="url(#clip-path-6)">
              <path id="패스_15144" data-name="패스 15144" d="M23.362,22.417a9.243,9.243,0,1,1-9.245-9.245,9.246,9.246,0,0,1,9.245,9.245" transform="translate(-4.877 -13.174)" fill="#ff9b73"/>
            </g>
          </g>
        </g>
        <path id="패스_15145" data-name="패스 15145" d="M7.722,17.04a8.867,8.867,0,0,1,7.485-3.825,8.864,8.864,0,0,1,7.48,3.825" transform="translate(30.888 52.86)" fill="none" stroke="#000" stroke-linecap="round" stroke-linejoin="round" stroke-width="0.7"/>
        <path id="패스_15146" data-name="패스 15146" d="M16.5,17.04a8.867,8.867,0,0,1,7.485-3.825,8.864,8.864,0,0,1,7.48,3.825" transform="translate(65.996 52.86)" fill="none" stroke="#000" stroke-linecap="round" stroke-linejoin="round" stroke-width="0.7"/>
        <path id="패스_15147" data-name="패스 15147" d="M33.024,17.148a64.3,64.3,0,0,0,10.95-1.37c4.52-1.14,11.82,1.14,11.82,10.265S49.719,41.1,33.024,41.1H31.709c-16.7,0-22.77-5.93-22.77-15.055s7.3-11.405,11.82-10.265a64.3,64.3,0,0,0,10.95,1.37Z" transform="translate(35.756 62.027)" fill="#ec8d7e"/>
        <path id="패스_15148" data-name="패스 15148" d="M22.555,15.99v1.99a3.719,3.719,0,0,1-3.73,3.71h-2.49a3.719,3.719,0,0,1-3.73-3.71V15.99" transform="translate(50.42 63.96)" fill="#fff"/>
        <path id="패스_15149" data-name="패스 15149" d="M33.024,17.148a64.3,64.3,0,0,0,10.95-1.37c4.52-1.14,11.82,1.14,11.82,10.265S49.719,41.1,33.024,41.1H31.709c-16.7,0-22.77-5.93-22.77-15.055s7.3-11.405,11.82-10.265a64.3,64.3,0,0,0,10.95,1.37Z" transform="translate(35.756 62.027)" fill="none" stroke="#000" stroke-miterlimit="10" stroke-width="0.7"/>
        <path id="패스_15150" data-name="패스 15150" d="M16.913,36.5a17.845,17.845,0,0,1-7.34-1.64C5.658,33.1,1.6,28.572,1.4,23.3a2.7,2.7,0,0,1,.77-1.965,2.782,2.782,0,0,1,1.99-.86,2.525,2.525,0,0,1,1.465.465,6.083,6.083,0,0,0,3.6,1.025,22.367,22.367,0,0,0,6.44-1.35,10.278,10.278,0,0,1,3.07-.475,8.955,8.955,0,0,1,8.275,4.91,6.921,6.921,0,0,1-.325,6.87c-1.78,2.82-5.525,4.575-9.775,4.575" transform="translate(5.607 80.568)" fill="#f4c34a"/>
        <path id="패스_15151" data-name="패스 15151" d="M19.735,22.392a7.756,7.756,0,0,1,7.145,4.2c2.4,5.035-2.275,9.66-8.97,9.66a16.657,16.657,0,0,1-6.83-1.535C7.925,33.3,3.835,29.367,3.65,24.262a1.535,1.535,0,0,1,1.51-1.54,1.285,1.285,0,0,1,.74.235,7.311,7.311,0,0,0,4.33,1.26,23.629,23.629,0,0,0,6.81-1.41,8.887,8.887,0,0,1,2.695-.415m0-2.5a11.5,11.5,0,0,0-3.45.53,21.489,21.489,0,0,1-6.055,1.295,4.884,4.884,0,0,1-2.89-.8,3.744,3.744,0,0,0-2.18-.695,4.05,4.05,0,0,0-2.89,1.245,3.9,3.9,0,0,0-1.115,2.88c.215,6.04,4.765,10.79,8.9,12.65a19.145,19.145,0,0,0,7.855,1.75c4.67,0,8.825-1.98,10.83-5.16a8.116,8.116,0,0,0,.4-8.075,10.185,10.185,0,0,0-9.4-5.62" transform="translate(4.61 79.568)"/>
        <path id="패스_15152" data-name="패스 15152" d="M31.536,36.5c-4.25,0-7.995-1.755-9.775-4.575a6.921,6.921,0,0,1-.325-6.87,8.955,8.955,0,0,1,8.275-4.91,10.336,10.336,0,0,1,3.075.475,22.3,22.3,0,0,0,6.435,1.35,6.11,6.11,0,0,0,3.6-1.025,2.51,2.51,0,0,1,1.46-.465,2.782,2.782,0,0,1,1.99.86,2.694,2.694,0,0,1,.77,1.965c-.19,5.27-4.255,9.795-8.17,11.555a17.845,17.845,0,0,1-7.34,1.64" transform="translate(82.719 80.568)" fill="#f4c34a"/>
        <path id="패스_15153" data-name="패스 15153" d="M30.715,22.392a8.886,8.886,0,0,1,2.695.415,23.629,23.629,0,0,0,6.81,1.41,7.311,7.311,0,0,0,4.33-1.26,1.285,1.285,0,0,1,.74-.235,1.535,1.535,0,0,1,1.51,1.54c-.185,5.105-4.28,9.035-7.43,10.45a16.657,16.657,0,0,1-6.83,1.535c-6.7,0-11.365-4.625-8.97-9.66a7.756,7.756,0,0,1,7.145-4.2m0-2.5v0a10.185,10.185,0,0,0-9.4,5.62,8.115,8.115,0,0,0,.395,8.075c2,3.18,6.16,5.16,10.83,5.16A19.145,19.145,0,0,0,40.395,37c4.135-1.86,8.685-6.61,8.9-12.65a3.9,3.9,0,0,0-1.115-2.88,4.05,4.05,0,0,0-2.89-1.245,3.744,3.744,0,0,0-2.18.695,4.884,4.884,0,0,1-2.89.8,21.489,21.489,0,0,1-6.055-1.295,11.5,11.5,0,0,0-3.45-.53" transform="translate(81.715 79.568)"/>
      </g>
    </g>
  </g>
</svg>
